<?xml version="1.0" encoding="UTF-8"?>
<svg id="Layer_1" xmlns="http://www.w3.org/2000/svg" version="1.1" viewBox="0 0 200 200">
  <!-- Generator: Adobe Illustrator 29.1.0, SVG Export Plug-In . SVG Version: 2.1.0 Build 142)  -->
  <defs>
    <style>
      .st0 {
        fill: #235a2c;
      }

      .st1 {
        fill: #0e0e0e;
      }
    </style>
  </defs>
  <path class="st0" d="M117.93,90.57c-3.36,3.55-5.23,8.45-5.61,14.7-.32,5.11.46,9.42,2.28,12.97l13.49-32.48c-4.02.31-7.41,1.89-10.16,4.8Z"/>
  <path class="st0" d="M53.92,53.42H21.41l37.77,109.14h38.86l1.98-5.75c-7.17-3.89-18.47-16.29-21.33-24.59"/>
  <path class="st1" d="M76.14,109.9c-.92-9.31.7-18.13,4.88-26.46,4.18-8.33,10.64-15.42,19.4-21.28,11.12-7.43,22.45-10.7,33.99-9.83,11.55.87,21.82,5.68,30.81,14.4l-26.65,17.81c-3.85-2.3-7.78-3.39-11.78-3.28-4,.12-7.86,1.41-11.56,3.89-5.73,3.83-8.93,8.92-9.61,15.28-.68,6.36,1.26,12.96,5.81,19.78,4.61,6.91,9.99,11.26,16.13,13.07,6.14,1.81,12.07.8,17.8-3.03,3.7-2.47,6.38-5.54,8.02-9.19,1.64-3.65,2.13-7.7,1.48-12.14l26.65-17.81c4.62,11.65,5.12,22.98,1.51,33.98-3.61,11-10.98,20.21-22.09,27.64-8.76,5.85-17.79,9.11-27.08,9.78-9.3.67-18.07-1.2-26.32-5.62-8.25-4.42-15.33-11.04-21.23-19.89-5.85-8.76-9.24-17.79-10.16-27.1Z"/>
</svg>